<svg width="20" height="20" viewBox="0 0 20 20" fill="none" xmlns="http://www.w3.org/2000/svg">
<path d="M5.83341 18.3333H3.33341C2.89139 18.3333 2.46746 18.1577 2.1549 17.8451C1.84234 17.5326 1.66675 17.1087 1.66675 16.6666V10.8333C1.66675 10.3913 1.84234 9.96734 2.1549 9.65478C2.46746 9.34222 2.89139 9.16663 3.33341 9.16663H5.83341M11.6667 7.49996V4.16663C11.6667 3.50358 11.4034 2.8677 10.9345 2.39886C10.4657 1.93002 9.82979 1.66663 9.16675 1.66663L5.83341 9.16663V18.3333H15.2334C15.6354 18.3378 16.0254 18.197 16.3317 17.9366C16.6379 17.6763 16.8398 17.314 16.9001 16.9166L18.0501 9.41663C18.0863 9.17776 18.0702 8.93386 18.0029 8.70184C17.9355 8.46981 17.8185 8.2552 17.66 8.07289C17.5014 7.89057 17.3051 7.7449 17.0847 7.64597C16.8643 7.54705 16.625 7.49722 16.3834 7.49996H11.6667Z" stroke="white" stroke-width="2" stroke-linecap="round" stroke-linejoin="round"/>
</svg>
